<svg id="Layer_1" data-name="Layer 1" xmlns="http://www.w3.org/2000/svg" viewBox="0 0 144.76 135.12"><defs><style>.cls-1{fill:#e6ecf4;}.cls-2{fill:#5b5676;}.cls-3{fill:#e5c6e4;}.cls-4{fill:#e5ac57;}.cls-5{fill:#bbcadc;}.cls-6{fill:#4791e2;}</style></defs><title>put_it all_together</title><path class="cls-1" d="M148.32,88.68l-7.08,44.56a124.56,124.56,0,0,1-45.32-14.06l-4.8,7.13L82.7,83.13l43.18-8.43-4.61,6.85A79.68,79.68,0,0,0,148.32,88.68ZM51.41,44.16l8.24.57a79.85,79.85,0,0,0-7.35-27L94.43,1.59a124.58,124.58,0,0,1,10.48,46.28l8.58.59L80.3,77.35ZM76.23,82.65,61.94,124.26l-3.63-7.41A79.72,79.72,0,0,0,38.62,136.7L3.56,108.3A124.61,124.61,0,0,1,38.4,76.08l-3.78-7.73Z" transform="translate(-3.56 -1.59)"/><path class="cls-2" d="M92.84,36.22C91.43,42.34,85,47.21,78,45c-9.61-3-10.86-13.1-5-19a12.64,12.64,0,0,1,8-3.75Z" transform="translate(-3.56 -1.59)"/><path class="cls-3" d="M81,22.25c4.19-.31,8.46,1.69,11,6.75a10.59,10.59,0,0,1,.84,7.22L81,34Z" transform="translate(-3.56 -1.59)"/><path class="cls-4" d="M130,121l-23-8,10-22,18,6Zm2-22-2.66-1-1.49,4.46,3.12,1.18Zm-1.44,6.49-3.33-1.17-1.63,4.87,3.79,1.56Zm-5.24-1.85-3.78-1.33-2.07,4.36,4.19,1.72Zm3.47,9.82-4-1.78-1.24,3.74L128,117Zm-7.33,1.23,1.36-3.88-4.38-2-1.94,4.08ZM111,111l3.38,1.19,2-4.24-3.27-1.45Zm3.08-6.55,3.32,1.36,2-4.25-3.41-1.2ZM119,94l-2,4.36,3.38,1.27,2-4.33Zm3.44,6.41,3.55,1.34,1.56-4.46-3.07-1.18Z" transform="translate(-3.56 -1.59)"/><path class="cls-5" d="M41.46,117.14,26.24,101.35l-2.1,1.9L39.36,119Z" transform="translate(-3.56 -1.59)"/><path class="cls-6" d="M42.66,116l-4.19-3.79L49.81,98.67l4.24,4.79Zm-9.48-9.54,8.49-10.43,4.19,3.79L37.37,110.3Zm-5.3-5.74,5.65-7.29,4.19,3.79-5.64,7.29Z" transform="translate(-3.56 -1.59)"/></svg>