<svg id="Layer_1" data-name="Layer 1" xmlns="http://www.w3.org/2000/svg" viewBox="0 0 122.1 114"><defs><style>.cls-1{fill:#f2e672;}.cls-2{fill:#eaeff5;}.cls-3{fill:#4791e2;}.cls-4{fill:#beccdc;}.cls-5,.cls-6{fill:#e0b1de;}.cls-6{stroke:#e0b1de;stroke-miterlimit:10;}</style></defs><title>learn_3</title><path class="cls-1" d="M39,75,34,27l12.1-.85L48,35s-5.18,2.92-3,7,8.78,3.39,11-1-3-6-3-6V25.67l18.93-1.33L74,34s-5.18,2.92-3,7,8.78,3.39,11-1-3-6-3-6V23.84L91,23l5,49Z" transform="translate(-16.9 -23)"/><path class="cls-2" d="M74,137l65-6-5-83L93.68,49.24S91.48,59.34,86,65c-6.15,6.35-15.66,8.35-15.66,8.35Z" transform="translate(-16.9 -23)"/><path class="cls-3" d="M88,88l10-9,6,4,10-12,4,4L105,91l-6-5L88,96Z" transform="translate(-16.9 -23)"/><path class="cls-4" d="M88,109v-3l35-3v3ZM85,78l3-1,2,22,33-3v3l-35,3Zm8.68-28.76L96,72,70.34,73.35ZM106,115l-18,1v-3l18-1Z" transform="translate(-16.9 -23)"/><path class="cls-5" d="M34.75,92.16a13.68,13.68,0,0,0,4.6,26.17c0,.06,4.35,9.84,4.35,9.84a.84.84,0,0,0,.41.42,8.24,8.24,0,0,0,6.52-.06,10.06,10.06,0,0,0,4.85-4.87.82.82,0,0,0,0-.67s-4.33-9.86-4.36-10a13.75,13.75,0,0,0,2.67-6.25,13.69,13.69,0,0,0-19-14.59Zm18.49,30.11L44,124.51l-.8-1.81,9.24-2.2Zm-1.49-3.37-9.24,2.2-.44-1-.23-.52,9.2-2.29ZM40.66,105.21a3.62,3.62,0,0,0,.22-.32,2.32,2.32,0,0,0,.38,0,4,4,0,0,0,1.49-.16c.77,2.82,2.65,7.52,3.71,10.1.31.74.54,1.31.67,1.6l-2.08.52c-.15-.31-.35-.74-.58-1.24-1.19-2.53-3.38-7.09-4.94-9.56A4.52,4.52,0,0,0,40.66,105.21Zm-1.39-2.14a1,1,0,0,1,.41-.89.94.94,0,0,1,.94.3c.08.16,0,.57-.34,1.06A1.22,1.22,0,0,1,39.27,103.07Zm10.11,9.34-.35.41,1.3,2.87-2.44.6c-.17-.41-.42-1-.71-1.73-1.17-2.86-3-7.61-3.69-10.08a2.61,2.61,0,0,0,1.18-1.25,3.13,3.13,0,0,0,.09-2.11,2,2,0,0,0-1.18-1.44c-.57-.2-1.28.07-1.41,1.49a8.68,8.68,0,0,0,.27,2.36,3.77,3.77,0,0,1-1,.19,2.34,2.34,0,0,0-.16-1.63A1.88,1.88,0,0,0,39.16,101a1.88,1.88,0,0,0-.63,2.32,2.36,2.36,0,0,0,1.1,1.22,4,4,0,0,1-.81.6,8.73,8.73,0,0,0-1.56-1.79c-1.13-.86-1.81-.52-2,0a2.07,2.07,0,0,0,.26,1.84,3.19,3.19,0,0,0,1.62,1.37,2.6,2.6,0,0,0,1.72,0c1.38,2.15,3.62,6.74,4.94,9.53l.53,1.12-3.14.78-.6-1.33H40a12,12,0,1,1,11.2-16.76A11.88,11.88,0,0,1,49.38,112.41Zm-6.2-9.25a5.62,5.62,0,0,1-.13-1.41c.07-.79.39-1,.64-.88a.38.38,0,0,1,.25.24,1.77,1.77,0,0,1-.07,1.23A1.9,1.9,0,0,1,43.18,103.16Zm-5.13,2.26a2,2,0,0,1-1.07,0,1.82,1.82,0,0,1-1-.79.37.37,0,0,1,0-.34c.11-.25.45-.36,1.09.12A5.75,5.75,0,0,1,38.05,105.42Z" transform="translate(-16.9 -23)"/><path class="cls-6" d="M24.86,109.07a1,1,0,0,0-1.38-.52l-5.24,2.31a1,1,0,1,0,.83,1.88l5.24-2.3A1,1,0,0,0,24.86,109.07Z" transform="translate(-16.9 -23)"/><path class="cls-6" d="M35.18,89.77a1,1,0,0,0,.55-1.36l-2.24-5.12a1.06,1.06,0,0,0-1.94.85l2.25,5.12A1,1,0,0,0,35.18,89.77Z" transform="translate(-16.9 -23)"/><path class="cls-6" d="M60.46,93.32l-5.24,2.3A1,1,0,0,0,54.67,97a1,1,0,0,0,1.38.52l5.24-2.3a1,1,0,1,0-.83-1.89Z" transform="translate(-16.9 -23)"/><path class="cls-6" d="M63.11,109.39l-5.53-1.25a1.07,1.07,0,0,0-1.28.78,1,1,0,0,0,.77,1.24l5.54,1.25a1.06,1.06,0,0,0,.66-.07,1,1,0,0,0,.61-.71A1,1,0,0,0,63.11,109.39Z" transform="translate(-16.9 -23)"/><path class="cls-6" d="M31.32,119.69l-2.82,4.92a1,1,0,0,0,.39,1.41,1.08,1.08,0,0,0,1.44-.42l2.82-4.92a1,1,0,0,0-.4-1.41A1.08,1.08,0,0,0,31.32,119.69Z" transform="translate(-16.9 -23)"/><path class="cls-6" d="M47.19,88.09a1.08,1.08,0,0,0,.57-.58l2.11-5.24a1,1,0,0,0-.59-1.34,1.08,1.08,0,0,0-1.37.6L45.8,86.78a1,1,0,0,0,1.39,1.31Z" transform="translate(-16.9 -23)"/><path class="cls-6" d="M23.36,98.24a1.08,1.08,0,0,0,.81,0,1.06,1.06,0,0,0,.56-.58,1,1,0,0,0-.59-1.34l-5.29-2a1.08,1.08,0,0,0-1.37.6,1,1,0,0,0,.59,1.34Z" transform="translate(-16.9 -23)"/></svg>