<svg xmlns="http://www.w3.org/2000/svg" viewBox="0 0 38 26.73"><title>Asset 16</title><g id="Layer_2" data-name="Layer 2"><g id="Layer_1-2" data-name="Layer 1"><g id="Lozenge"><path d="M37.62,5.77S37.25,3.15,36.11,2A5.43,5.43,0,0,0,32.3.38C27,0,19,0,19,0h0S11,0,5.7.38A5.44,5.44,0,0,0,1.89,2C.75,3.15.38,5.77.38,5.77A57.47,57.47,0,0,0,0,11.92V14.8a57.47,57.47,0,0,0,.38,6.15s.37,2.62,1.51,3.77c1.45,1.51,3.34,1.47,4.19,1.62,3,.29,12.92.38,12.92.38s8,0,13.3-.4a5.44,5.44,0,0,0,3.81-1.61c1.14-1.15,1.51-3.77,1.51-3.77A57.55,57.55,0,0,0,38,14.8V11.92A57.55,57.55,0,0,0,37.62,5.77ZM15,18.86V7.62l10.81,5.64Z"/></g></g></g></svg>